<svg width="353" height="120" viewBox="0 0 353 120" fill="none" xmlns="http://www.w3.org/2000/svg">
<g clip-path="url(#clip0_63_1669)">
<path d="M136.605 34.1965C87.8646 80.6421 59.4083 94.1935 5.16869 79.8922C-3.159 99.2372 6.11429 118.024 22.1892 118.97C38.2641 119.915 130.931 120.545 147.952 118.97C164.972 117.394 177.896 106.049 177.896 88.401C177.896 70.753 166.201 60.9228 145.431 58.4625C145.426 47.8458 143.141 42.6508 136.605 34.1965Z" fill="white"/>
<path d="M43.0274 34.5112C20.9637 38.9232 20.9637 68.2313 20.9637 68.2313C70.0016 74.1756 95.0231 67.2026 134.119 31.6749C134.119 31.6749 122.141 18.4389 104.805 18.4389C83.0572 18.4389 71.3949 37.0323 71.3949 37.0323C71.3949 37.0323 65.091 30.0991 43.0274 34.5112Z" fill="#BFA181"/>
<path d="M145.69 28.4014L140.346 22.884C140.223 22.7571 140.017 22.764 139.903 22.8987L136.417 27.0188C136.318 27.1358 136.324 27.3088 136.43 27.4189L136.737 27.7356C136.816 27.8168 136.933 27.8466 137.041 27.8127L138.03 27.5013C138.291 27.419 138.516 27.7026 138.377 27.9381L135.942 32.0407C135.781 32.3108 136.094 32.6133 136.359 32.4446L140.352 29.9024C140.575 29.76 140.86 29.9582 140.804 30.2174L140.533 31.4641C140.512 31.5616 140.541 31.6632 140.611 31.7349L140.84 31.9715C140.943 32.0777 141.108 32.0927 141.228 32.0069L145.649 28.8517C145.798 28.7457 145.817 28.5325 145.69 28.4014Z" fill="#BFA181"/>
<path fill-rule="evenodd" clip-rule="evenodd" d="M168.683 1.11118C171.213 3.72266 168.183 10.021 167.567 11.2276C167.505 11.3481 167.37 11.4064 167.24 11.3678C166.465 11.1376 163.798 10.2208 161.606 7.95706C159.414 5.6945 158.51 2.92684 158.281 2.11947C158.243 1.98491 158.307 1.8468 158.435 1.78946C159.695 1.22315 166.158 -1.49553 168.683 1.11118ZM158.546 23.6965L151.589 28.7116C151.455 28.8081 151.425 28.9949 151.509 29.1375C151.911 29.8284 152.388 31.1579 151.922 32.4826C151.391 33.993 152.283 33.9277 153.067 33.4509C158.207 30.3276 159.161 26.041 158.989 23.887C158.972 23.6685 158.724 23.5683 158.546 23.6965ZM140.27 17.0258L145.512 10.2404C145.646 10.0669 145.554 9.81619 145.336 9.79166C143.187 9.54987 138.869 10.3631 135.578 15.3948C135.076 16.1628 134.981 17.0518 136.509 16.5706C137.849 16.1485 139.163 16.6675 139.841 17.0923C139.981 17.18 140.169 17.1564 140.27 17.0258ZM157.319 2.45593C159.325 7.61965 161.432 9.90598 166.85 12.2882C167.024 12.3648 167.085 12.5858 166.974 12.7404C160.701 21.5141 156.62 25.1427 148.512 29.0933C148.396 29.1497 148.255 29.126 148.165 29.0334L139.965 20.5672C139.876 20.4752 139.856 20.3346 139.915 20.221C144.143 12.0953 147.98 8.19567 156.87 2.31348C157.03 2.20796 157.249 2.27771 157.319 2.45593ZM153.662 18.5398C156.04 19.2187 158.518 17.8426 159.197 15.4662C159.875 13.0897 158.497 10.6129 156.119 9.93396C153.74 9.25503 151.263 10.6311 150.584 13.0075C149.906 15.384 151.284 17.8608 153.662 18.5398ZM146.593 22.4787C147.396 23.3075 148.719 23.3293 149.548 22.5273C150.378 21.7253 150.399 20.4032 149.596 19.5744C148.793 18.7455 147.47 18.7237 146.641 19.5257C145.812 20.3277 145.791 21.6498 146.593 22.4787Z" fill="white"/>
<path d="M321.812 59.5349V23.3116H336.498C339.295 23.3116 341.735 23.7209 343.815 24.5395C345.931 25.3581 347.569 26.6884 348.728 28.5302C349.922 30.3721 350.519 32.862 350.519 36C350.519 38.8992 349.888 41.3209 348.625 43.2651C347.364 45.2093 345.641 46.6589 343.457 47.6139C341.274 48.5349 338.784 48.9953 335.986 48.9953H330.101V59.5349H321.812ZM330.101 41.6279H335.986C337.931 41.6279 339.466 41.1504 340.592 40.1953C341.752 39.2403 342.331 37.8419 342.331 36C342.331 34.3628 341.837 33.1179 340.847 32.2651C339.893 31.4124 338.306 30.986 336.088 30.986H330.101V41.6279Z" fill="white"/>
<path d="M300.496 59.9442C296.914 59.9442 293.962 59.2961 291.643 58C289.323 56.7039 287.6 54.7938 286.475 52.2698C285.382 49.7458 284.837 46.676 284.837 43.0605V23.3116H293.127V43.5209C293.127 44.9876 293.348 46.386 293.792 47.7163C294.235 49.0465 295.003 50.1379 296.095 50.9907C297.186 51.8093 298.687 52.2186 300.598 52.2186C302.542 52.2186 304.009 51.7923 304.999 50.9395C306.022 50.0868 306.721 48.9953 307.097 47.6651C307.506 46.3349 307.711 44.9535 307.711 43.5209V23.3116H316V43.0605C316 46.6419 315.454 49.6946 314.363 52.2186C313.271 54.7426 311.582 56.6698 309.297 58C307.011 59.2961 304.078 59.9442 300.496 59.9442Z" fill="white"/>
<path d="M240.887 59.5349V23.3116H267.599V30.986H249.177V37.8419H264.682V45.2093H249.177V51.9116H267.599V59.5349H240.887Z" fill="white"/>
<path d="M202.42 59.5349V23.3116H210.454L226.47 45.9256V23.3116H234.811V59.5349H226.982L210.709 37.1767V59.5349H202.42Z" fill="white"/>
<path d="M179.97 59.9442C176.252 59.9442 173.028 59.1767 170.299 57.6419C167.604 56.0728 165.523 53.907 164.056 51.1442C162.589 48.3473 161.856 45.124 161.856 41.4744C161.856 37.7225 162.607 34.4651 164.107 31.7023C165.642 28.9054 167.775 26.7395 170.504 25.2047C173.232 23.6356 176.456 22.8512 180.175 22.8512C183.825 22.8512 186.998 23.6186 189.693 25.1535C192.422 26.6884 194.537 28.8372 196.038 31.6C197.573 34.3287 198.341 37.5519 198.341 41.2698C198.341 44.9194 197.59 48.1597 196.089 50.9907C194.589 53.7876 192.456 55.9876 189.693 57.5907C186.964 59.1597 183.723 59.9442 179.97 59.9442ZM180.124 52.1163C182.443 52.1163 184.32 51.5876 185.753 50.5302C187.185 49.4728 188.226 48.1256 188.874 46.4884C189.523 44.8512 189.846 43.1798 189.846 41.4744C189.846 40.2124 189.658 38.9504 189.284 37.6884C188.942 36.4263 188.379 35.2667 187.595 34.2093C186.844 33.1519 185.855 32.2993 184.627 31.6512C183.399 31.0031 181.88 30.6791 180.073 30.6791C177.787 30.6791 175.928 31.2077 174.495 32.2651C173.062 33.2884 172.004 34.6186 171.322 36.2558C170.674 37.893 170.35 39.6155 170.35 41.4233C170.35 43.231 170.692 44.9535 171.374 46.5907C172.056 48.2279 173.113 49.5581 174.546 50.5814C176.013 51.6047 177.872 52.1163 180.124 52.1163Z" fill="white"/>
<path d="M333.32 91.1628V70.1172H340.792C342.975 70.1172 344.802 70.5637 346.271 71.4567C347.739 72.3298 348.84 73.5603 349.575 75.1479C350.329 76.7156 350.707 78.5512 350.707 80.6549C350.707 82.7386 350.339 84.5742 349.605 86.1618C348.87 87.7296 347.769 88.96 346.3 89.853C344.831 90.7261 342.996 91.1628 340.792 91.1628H333.32ZM335.91 88.8111H340.614C342.32 88.8111 343.72 88.4638 344.812 87.7693C345.903 87.0747 346.717 86.1221 347.253 84.9116C347.789 83.6812 348.057 82.2623 348.057 80.6549C348.057 79.0871 347.789 77.688 347.253 76.4577C346.737 75.2272 345.943 74.2549 344.871 73.5404C343.8 72.826 342.43 72.4688 340.763 72.4688H335.91V88.8111Z" fill="white"/>
<path d="M309.049 91.4009C307.084 91.4009 305.486 90.994 304.255 90.1804C303.024 89.3668 302.122 88.2654 301.546 86.8763C300.97 85.4672 300.683 83.8697 300.683 82.0837V70.1172H303.273V82.0539C303.273 83.324 303.451 84.4949 303.809 85.5665C304.185 86.6182 304.801 87.4617 305.655 88.0967C306.508 88.7317 307.649 89.0493 309.078 89.0493C310.527 89.0493 311.658 88.7317 312.472 88.0967C313.306 87.4617 313.902 86.6182 314.259 85.5665C314.616 84.4949 314.795 83.324 314.795 82.0539V70.1172H317.415V82.0837C317.415 83.8498 317.127 85.4375 316.551 86.8465C315.975 88.2554 315.073 89.3668 313.842 90.1804C312.611 90.994 311.014 91.4009 309.049 91.4009Z" fill="white"/>
<path d="M276.05 91.4009C273.867 91.4009 272.041 90.9346 270.571 90.0018C269.103 89.0691 267.991 87.7891 267.237 86.1618C266.503 84.5346 266.135 82.6989 266.135 80.6549C266.135 78.591 266.503 76.7454 267.237 75.1181C267.991 73.4909 269.103 72.2109 270.571 71.2781C272.041 70.3454 273.867 69.8791 276.05 69.8791C278.233 69.8791 280.049 70.3454 281.498 71.2781C282.967 72.2109 284.069 73.4909 284.803 75.1181C285.557 76.7454 285.934 78.591 285.934 80.6549C285.934 82.6989 285.557 84.5346 284.803 86.1618C284.069 87.7891 282.967 89.0691 281.498 90.0018C280.049 90.9346 278.233 91.4009 276.05 91.4009ZM276.05 89.0493C277.717 89.0493 279.086 88.6723 280.158 87.9181C281.23 87.1442 282.014 86.1221 282.51 84.8521C283.027 83.582 283.284 82.183 283.284 80.6549C283.284 79.5039 283.135 78.4223 282.838 77.4102C282.56 76.3783 282.123 75.4753 281.528 74.7014C280.932 73.9274 280.179 73.3221 279.265 72.8856C278.352 72.449 277.28 72.2307 276.05 72.2307C274.403 72.2307 273.033 72.6177 271.941 73.3916C270.869 74.1656 270.065 75.1876 269.529 76.4577C269.014 77.7277 268.755 79.1268 268.755 80.6549C268.755 82.1631 269.014 83.5523 269.529 84.8223C270.046 86.0924 270.839 87.1144 271.911 87.8884C273.003 88.6623 274.382 89.0493 276.05 89.0493Z" fill="white"/>
<path d="M239.315 91.1628V70.1172H241.905V88.8111H253.457V91.1628H239.315Z" fill="white"/>
<path d="M215.982 91.4009C213.819 91.4009 212.012 90.9445 210.563 90.0316C209.134 89.0989 208.062 87.8288 207.348 86.2214C206.653 84.5941 206.306 82.7386 206.306 80.6549C206.306 78.591 206.663 76.7553 207.378 75.1479C208.092 73.5206 209.164 72.2406 210.593 71.3079C212.042 70.3553 213.858 69.8791 216.041 69.8791C217.59 69.8791 218.919 70.1271 220.031 70.6232C221.162 71.0995 222.075 71.7644 222.77 72.6177C223.465 73.471 223.941 74.4732 224.199 75.6242H221.579C221.281 74.5923 220.637 73.7686 219.644 73.1535C218.672 72.5383 217.441 72.2307 215.952 72.2307C214.285 72.2307 212.935 72.6276 211.903 73.4214C210.891 74.1953 210.147 75.2174 209.67 76.4874C209.194 77.7377 208.956 79.097 208.956 80.5656C208.956 82.1135 209.204 83.5324 209.7 84.8223C210.196 86.1123 210.97 87.1442 212.022 87.9181C213.074 88.6723 214.414 89.0493 216.041 89.0493C217.034 89.0493 217.917 88.9104 218.691 88.6325C219.485 88.3547 220.14 87.9578 220.656 87.4418C221.192 86.9258 221.56 86.3305 221.758 85.6558H224.586C224.288 86.8068 223.753 87.8189 222.978 88.6921C222.224 89.5454 221.262 90.2102 220.091 90.6865C218.919 91.1628 217.55 91.4009 215.982 91.4009Z" fill="white"/>
</g>
<defs>
<clipPath id="clip0_63_1669">
<rect width="353" height="120" fill="white"/>
</clipPath>
</defs>
</svg>
